<?xml version="1.0" standalone="no"?><!DOCTYPE svg PUBLIC "-//W3C//DTD SVG 1.1//EN" "http://www.w3.org/Graphics/SVG/1.1/DTD/svg11.dtd"><svg t="1653836237819" class="icon" viewBox="0 0 1024 1024" version="1.1" xmlns="http://www.w3.org/2000/svg" p-id="4348" xmlns:xlink="http://www.w3.org/1999/xlink" width="200" height="200"><defs><style type="text/css">@font-face { font-family: feedback-iconfont; src: url("//at.alicdn.com/t/font_1031158_u69w8yhxdu.woff2?t=1630033759944") format("woff2"), url("//at.alicdn.com/t/font_1031158_u69w8yhxdu.woff?t=1630033759944") format("woff"), url("//at.alicdn.com/t/font_1031158_u69w8yhxdu.ttf?t=1630033759944") format("truetype"); }
</style></defs><path d="M512 910.16c246.79 0 395.69-196.53 395.69-377.24S730.53 205.72 512 205.72s-395.69 146.49-395.69 327.2S265.21 910.16 512 910.16z" fill="#FF7E1D" p-id="4349"></path><path d="M711.31 274.09C791 241.9 850 182.94 839.44 158.23c-34.67-25.65-143.71-8.44-192.06 9.86q-79.67 32.17-99.73 91.52 83.99 46.67 163.66 14.48z" fill="#FE6000" p-id="4350"></path><path d="M512 918.16c-60.26 0-117.17-11.5-169.14-34.2a388.51 388.51 0 0 1-127-89.15c-68.32-72-107.5-167.43-107.5-261.89 0-66.76 23.55-131.22 68.1-186.43a8 8 0 0 1 12.46 10.05c-42.24 52.33-64.56 113.32-64.56 176.38 0 90.4 37.58 181.85 103.1 250.88a372.85 372.85 0 0 0 121.85 85.5C399.2 891.11 454 902.16 512 902.16c104.66 0 198-35.84 269.85-103.66a8 8 0 0 1 11 11.64 389.21 389.21 0 0 1-122.44 78.33c-49.05 19.7-102.34 29.69-158.41 29.69zM816.5 781.6a8 8 0 0 1-6.09-13.18c6.13-7.21 12.08-14.76 17.67-22.43a8 8 0 0 1 12.92 9.42c-5.83 8-12 15.86-18.41 23.37a8 8 0 0 1-6.09 2.82z m41.75-59.6a8 8 0 0 1-6.94-12c31.65-55.54 48.38-116.8 48.38-177.15 0-85-40.13-164.95-113-225.2-73.31-60.62-170.87-94-274.7-94A456.8 456.8 0 0 0 357.8 240c-47 16.81-89 40.79-124.72 71.29a8 8 0 1 1-10.38-12.19c37.24-31.77 80.88-56.72 129.72-74.18 50.47-18 104.16-27.2 159.58-27.2 107.55 0 208.73 34.69 284.89 97.67 37.19 30.75 66.4 66.59 86.82 106.53 21.22 41.47 32 85.55 32 131C915.69 596 898.23 660 865.21 718a8 8 0 0 1-6.96 4zM204.6 334.88a8 8 0 0 1-5.71-13.61c1.1-1.11 2.19-2.21 3.3-3.31a8 8 0 1 1 11.27 11.36q-1.59 1.57-3.15 3.16a8 8 0 0 1-5.71 2.4z" fill="#333333" p-id="4351"></path><path d="M511.45 787.05c-33.35 0-65.3-11.54-90-32.5s-40-49.47-43.33-80.35l-0.94-8.85h268.51l-0.94 8.85c-3.29 30.88-18.68 59.42-43.33 80.35s-56.63 32.5-89.97 32.5z m-116.06-105.7c4.6 23.37 17.32 44.77 36.44 61 21.78 18.5 50.06 28.69 79.62 28.69s57.83-10.19 79.61-28.69c19.12-16.24 31.84-37.64 36.44-61z" fill="#333333" p-id="4352"></path><path d="M640.9 511.48m-26.98 0a26.98 26.98 0 1 0 53.96 0 26.98 26.98 0 1 0-53.96 0Z" fill="#333333" p-id="4353"></path><path d="M350.12 533.51a7.89 7.89 0 0 1-3.23-0.69 8 8 0 0 1-4.08-10.55c7.43-16.79 26.71-33.78 49.18-33.78s41 16.89 48.61 32.58a8 8 0 0 1-14.4 7c-5.52-11.42-19.39-23.55-34.21-23.55-15.47 0-29.34 12.5-34.55 24.25a8 8 0 0 1-7.32 4.74z" fill="#333333" p-id="4354"></path><path d="M515 163.75a30 30 0 0 1 30 30v63a30 30 0 0 1-30 30 30 30 0 0 1-30-30v-63a30 30 0 0 1 30-30z" fill="" p-id="4355"></path><path d="M515 163.75a30 30 0 0 1 30 30v63a30 30 0 0 1-30 30 30 30 0 0 1-30-30v-63a30 30 0 0 1 30-30z" fill="#A1FC65" p-id="4356"></path><path d="M515 294.66a38 38 0 0 1-38-38v-63a38 38 0 1 1 76 0v63a38 38 0 0 1-38 38z m0-122.91a22 22 0 0 0-22 22v63a22 22 0 1 0 44 0v-63a22 22 0 0 0-22-22z" fill="#333333" p-id="4357"></path><path d="M712 243.19C791.73 211 850.74 151.84 840.13 127c-34.77-25.83-143.93-8.72-192.32 9.58q-79.72 32.22-99.72 91.81 84.18 47.02 163.91 14.8z" fill="#A1FC65" p-id="4358"></path><path d="M646.53 264.24c-33.68 0-67.9-9.64-102.34-28.88l-5.8-3.23 2.11-6.3c14-41.86 49.14-74.38 104.32-96.67l0.16-0.07c47.54-18 161.2-37.29 199.92-8.53l1.73 1.29 0.85 2c2.92 6.84 2.45 15-1.39 24.35C832.11 182 775.76 226.06 715 250.61a181.42 181.42 0 0 1-68.47 13.63zM558 224.65c24.92 13.07 49.75 20.8 73.88 23C657.79 250 683.74 246 709 235.78c62.82-25.38 111.51-67.57 122.3-93.7 1.65-4 2.32-7.49 2-10.09-14.53-9-44.66-12.23-83.48-8.79-34.86 3.09-73.73 11.26-99 20.82-47.82 19.3-78.96 46.4-92.82 80.63z" fill="#333333" p-id="4359"></path><path d="M281.18 619.39c1.19-18.41 16.17-33 34.48-33s33.28 14.56 34.47 33zM673.87 619.39c1.19-18.41 16.17-33 34.47-33s33.29 14.56 34.48 33z" fill="#FF4601" p-id="4360"></path></svg>